<?xml version="1.0" encoding="UTF-8"?>
<!DOCTYPE svg PUBLIC "-//W3C//DTD SVG 1.1//EN" "http://www.w3.org/Graphics/SVG/1.1/DTD/svg11.dtd">
<!-- Creator: CorelDRAW X7 -->
<svg xmlns="http://www.w3.org/2000/svg" xml:space="preserve" width="2.032mm" height="2.032mm" version="1.1" style="shape-rendering:geometricPrecision; text-rendering:geometricPrecision; image-rendering:optimizeQuality; fill-rule:evenodd; clip-rule:evenodd"
viewBox="0 0 84 84"
 xmlns:xlink="http://www.w3.org/1999/xlink">
 <defs>
  <style type="text/css">
   <![CDATA[
    .fil0 {fill:none}
    .fil1 {fill:#FF5B37;fill-rule:nonzero}
   ]]>
  </style>
 </defs>
 <g id="Layer_x0020_1">
  <metadata id="CorelCorpID_0Corel-Layer"/>
  <g id="eye-cross-error">
   <polygon class="fil0" points="0,0 84,0 84,84 0,84 "/>
   <g>
    <path class="fil1" d="M77 43l0 1 0 0c-1,1 -12,20 -35,20 -24,0 -35,-20 -35,-21 0,0 0,-2 0,-2l0 0 0 0c1,-2 12,-21 35,-21 24,0 35,21 35,21 0,1 0,2 0,2zm-35 15c17,0 26,-12 28,-16 -2,-4 -11,-16 -28,-16 -17,0 -26,12 -28,16 2,4 11,16 28,16z"/>
    <path class="fil1" d="M42 48c2,0 3,0 5,-1l0 0c1,-2 1,-3 1,-5 0,-2 0,-3 -1,-4l0 0c-2,-2 -3,-2 -5,-2 -2,0 -3,0 -4,2 -2,1 -2,2 -2,4 0,2 0,3 2,5 1,1 2,1 4,1zm9 3l0 0 0 0c-2,2 -5,4 -9,4 -3,0 -7,-2 -9,-4 -2,-2 -4,-5 -4,-9 0,-3 2,-7 4,-9 2,-2 6,-4 9,-4 4,0 7,2 9,4l0 0 0 0 0 0c2,2 4,6 4,9 0,4 -2,7 -4,9l0 0z"/>
    <path class="fil1" d="M13 76c-1,1 -3,1 -5,0 -1,-1 -1,-4 0,-5l63 -63c1,-1 4,-1 5,0 1,2 1,4 0,5l-63 63z"/>
   </g>
  </g>
 </g>
</svg>
